<svg width="48" height="28" viewBox="0 0 48 28" fill="none" xmlns="http://www.w3.org/2000/svg">
<path fill-rule="evenodd" clip-rule="evenodd" d="M45.5235 1.13776C45.5853 1.16844 45.6456 1.20131 45.7043 1.23623C46.5611 1.74638 47.0696 2.69585 47.0084 3.7026L46.4621 12.6972C46.3723 14.1755 45.1011 15.3011 43.6229 15.2113C42.1446 15.1215 41.019 13.8503 41.1088 12.372L41.2704 9.71145L28.6066 20.607C27.5236 21.5389 25.9002 21.4579 24.9152 20.423L19.1165 14.3302L5.25409 26.5775C4.14421 27.558 2.44956 27.4532 1.46899 26.3433C0.488424 25.2335 0.593252 23.5388 1.70313 22.5582L17.502 8.60005C18.583 7.64508 20.2256 7.71617 21.22 8.76097L27.042 14.8782L37.1034 6.2216H34.3447C32.8637 6.2216 31.6631 5.02101 31.6631 3.54002C31.6631 2.05902 32.8637 0.858434 34.3447 0.858434H44.3184C44.7282 0.856312 45.141 0.948029 45.5235 1.13776Z" fill="white"/>
</svg>
